<svg width="44" height="18" fill="none" xmlns="http://www.w3.org/2000/svg"><path d="M21.402.511l-4.38 13.176h-3.328L10.75 4.764l-3.041 8.922h-3.31L0 .51h3.213l3.022 9.26L9.391.512h2.869l3.06 9.336L18.438.51h2.964zm4.904 2.899c1.594 0 2.818.376 3.672 1.13.855.74 1.282 1.862 1.282 3.368v5.779h-2.793v-1.261c-.56.94-1.606 1.411-3.136 1.411-.79 0-1.48-.132-2.066-.395-.574-.264-1.014-.628-1.32-1.092a2.808 2.808 0 01-.459-1.58c0-.942.357-1.682 1.071-2.222.727-.54 1.843-.81 3.347-.81h2.372c0-.64-.198-1.128-.593-1.467-.395-.352-.988-.527-1.779-.527a5.2 5.2 0 00-1.625.263 4.19 4.19 0 00-1.34.678l-1.07-2.052c.56-.389 1.23-.69 2.008-.903.79-.214 1.6-.32 2.43-.32zm-.23 8.45c.51 0 .963-.112 1.358-.338.396-.238.676-.584.842-1.035V9.452H26.23c-1.224 0-1.837.395-1.837 1.185 0 .377.147.678.44.904.306.213.72.32 1.244.32zm17.911-8.3l-4.648 10.748c-.472 1.167-1.058 1.989-1.76 2.465-.688.477-1.523.715-2.505.715a5.302 5.302 0 01-1.588-.244c-.522-.163-.95-.39-1.281-.678l1.09-2.089a2.598 2.598 0 001.683.64c.408 0 .74-.1.995-.301.255-.188.484-.508.688-.96l.039-.094L32.243 3.56h3.08l2.888 6.87 2.907-6.87h2.869z" fill="#141517"/><path d="M44 3.56l-4.648 10.747c-.471 1.167-1.058 1.989-1.76 2.466-.688.476-1.523.715-2.505.715a5.302 5.302 0 01-1.587-.245c-.523-.163-.95-.389-1.282-.677l1.09-2.09a2.6 2.6 0 001.684.64c.408 0 .74-.1.994-.301.255-.188.485-.508.689-.96l.038-.094 1.51-3.331 2.908-6.87H44z" fill="#FE7865"/></svg>